<svg height="94" viewBox="0 0 72 94" width="72" xmlns="http://www.w3.org/2000/svg"><g><path d="m29.7 61.877h12.599v4.849h-12.599z"/><path d="m6.582 49.929h58.817v9.211h-58.817z"/><path d="m0 0v47.234h72v-47.234zm68.064 42.24a1.369 1.369 0 0 1 -1.43 1.316h-61.268a1.369 1.369 0 0 1 -1.43-1.316v-37.247a1.369 1.369 0 0 1 1.43-1.316h61.268a1.369 1.369 0 0 1 1.43 1.316z"/><path d="m46.1 81.941h59.191v-35.441h-59.191zm39.381-14.921a.689.689 0 0 1 .4-.6l8.172-3.5-8.172-3.445a.649.649 0 0 1 -.4-.6v-2.719a.655.655 0 0 1 .941-.556l12.31 5.321a.649.649 0 0 1 .4.6v3.015a.689.689 0 0 1 -.4.6l-12.31 5.264a.67.67 0 0 1 -.956-.57v-2.81zm-18.107 8.2 11.326-22.579a.705.705 0 0 1 .642-.375h2.57a.681.681 0 0 1 .657.959l-11.341 22.575a.705.705 0 0 1 -.642.375h-2.57a.679.679 0 0 1 -.642-.958zm-15.074-13.688a.689.689 0 0 1 .4-.6l12.325-5.321a.661.661 0 0 1 .941.556v2.779a.689.689 0 0 1 -.4.6l-8.172 3.445 8.172 3.5a.649.649 0 0 1 .4.6v2.834a.657.657 0 0 1 -.941.556l-12.325-5.267a.649.649 0 0 1 -.4-.6z" transform="translate(-39.695 -40.04)"/></g><path d="m11.189-21.874a1.029 1.029 0 0 0 -.673.307c-.031.184-.092.429-.122.613-.887 3.5-1.713 6.99-2.477 10.148-.275 1.257-.489 2.391-.673 3.373-.244-1.227-.214-.89-.458-2.085-.122-.552-.214-1.134-.336-1.748l-.459-1.84c-.7-2.882-1.315-5.427-1.774-7.512-.061-.337-.489-1.9-.856-1.962a12.058 12.058 0 0 0 -1.529.092 1.287 1.287 0 0 0 -1.254.858 30.68 30.68 0 0 1 .922 3.619c.153.736.336 1.533.52 2.33.4 1.656.856 3.434 1.284 5.181.612 2.422 1.223 5 1.651 6.622a8.223 8.223 0 0 0 .306.858v.092a3.069 3.069 0 0 0 2.018.858 2.67 2.67 0 0 0 1.621-.73c.122-.491.948-3.771 1.407-5.733.153-.613.245-1.073.306-1.257.4-1.717.887-3.924 1.254-5.7.489 2.422.765 3.71 1.223 5.733.489 1.9.979 3.894 1.376 5.519.061.307.122.46.183.766a1.941 1.941 0 0 1 .122.4l-.031-.031c.031.123.061.184.092.307a3.622 3.622 0 0 0 2.018.8 2.826 2.826 0 0 0 1.407-.613c.031-.031.092-.061.122-.092.55-1.288 1.9-6.684 3-11.16.214-.92.428-1.87.642-2.7.153-.613.336-1.2.459-1.748.245-.95.459-1.809.673-2.575a5.253 5.253 0 0 0 .183-1.2v-.216a3.018 3.018 0 0 0 -1.07-.184 5.446 5.446 0 0 0 -.7-.061c-.122 0-.214-.031-.336-.031-.428 0-.673 0-.826.153a.924.924 0 0 0 -.183.429l.031-.031-.153.491c-.612 2.79-1.346 5.856-2.477 10.21-.183.828-.306 1.656-.459 2.391-.122.644-.275 1.2-.4 1.778-.306-1.625-.459-2.177-.8-3.771-.031-.184-.092-.337-.122-.521-.367-1.441-.673-2.882-.979-4.108-.489-2.054-.948-3.863-1.254-5.089a3.913 3.913 0 0 0 -.581-1.41 8.182 8.182 0 0 0 -1.04.061 6.173 6.173 0 0 0 -.798.119zm16.33-.429a3.213 3.213 0 0 0 -.428 2.146v17.751a38.268 38.268 0 0 0 5.015.337 8.471 8.471 0 0 0 5.81-2.024c2.049-1.962 2.844-4.875 2.844-9.044 0-5.488-1.835-9.474-8.746-9.474-1.56 0-3.517.153-4.281.245zm9.694 9.167c0 7.174-2.6 8.615-5.015 8.615a16.281 16.281 0 0 1 -1.835-.092v-15.575c.336-.031.8-.031 1.223-.031a7.606 7.606 0 0 1 1.743.184c2.6.43 3.884 2.361 3.884 6.899zm9.387 11.006a4.481 4.481 0 0 0 1.682-.4v-8.92h4.251c.948 0 1.376-.307 1.5-2.453h-5.749v-6.254h3.547a7.855 7.855 0 0 0 1.957-.123c.581-.184.8-.552.917-2.269h-7.828a4.611 4.611 0 0 0 -1.5.368 4.743 4.743 0 0 0 -.428.245c.031.981.061 1.993.061 3.342v16.094a3.121 3.121 0 0 0 1.59.37z" transform="translate(7.875 96.004)"/></svg>