<svg height="20.182" viewBox="0 0 10.195 20.182" width="10.195" xmlns="http://www.w3.org/2000/svg"><path d="m77.029 10.749h2.212v9.108a.325.325 0 0 0 .326.326h3.751a.325.325 0 0 0 .326-.326v-9.065h2.543a.326.326 0 0 0 .323-.288l.39-3.353a.325.325 0 0 0 -.323-.363h-2.934v-2.1c0-.634.341-.955 1.014-.955h1.915a.326.326 0 0 0 .326-.326v-3.079a.325.325 0 0 0 -.325-.328h-2.64c-.019 0-.06 0-.121 0a5.058 5.058 0 0 0 -3.312 1.247 3.469 3.469 0 0 0 -1.149 3.083v2.458h-2.322a.325.325 0 0 0 -.326.326v3.31a.326.326 0 0 0 .326.325z" fill="#f07f00" transform="translate(-76.703)"/></svg>