<svg height="16.969" viewBox="0 0 16.969 16.969" width="16.969" xmlns="http://www.w3.org/2000/svg"><g fill="#f07f00"><path d="m11.914 0h-6.859a5.061 5.061 0 0 0 -5.055 5.055v6.859a5.061 5.061 0 0 0 5.055 5.055h6.859a5.061 5.061 0 0 0 5.055-5.055v-6.859a5.061 5.061 0 0 0 -5.055-5.055zm3.348 11.914a3.348 3.348 0 0 1 -3.348 3.348h-6.859a3.348 3.348 0 0 1 -3.348-3.348v-6.859a3.348 3.348 0 0 1 3.348-3.348h6.859a3.348 3.348 0 0 1 3.348 3.348z"/><path d="m137.389 133a4.389 4.389 0 1 0 4.389 4.389 4.394 4.394 0 0 0 -4.389-4.389zm0 7.07a2.682 2.682 0 1 1 2.682-2.682 2.682 2.682 0 0 1 -2.682 2.682z" transform="translate(-128.904 -128.904)"/><circle cx="12.882" cy="4.129" r="1.052"/></g></svg>