<svg height="16.481" viewBox="0 0 16.74 16.481" width="16.74" xmlns="http://www.w3.org/2000/svg"><g fill="#FFF" fill-rule="evenodd"><path d="m246.11 203.913v-.228c-.047.077-.111.153-.152.228z" transform="translate(-236.982 -196.399)"/><path d="m0 0v16.481h16.74v-16.481zm5.207 13.692h-2.484v-7.356h2.484zm-1.242-8.361h-.017a1.276 1.276 0 1 1 .033-2.542 1.277 1.277 0 1 1 -.016 2.542zm10.2 8.361h-2.485v-3.936c0-.989-.359-1.663-1.258-1.663a1.356 1.356 0 0 0 -1.274.894 1.652 1.652 0 0 0 -.082.6v4.109h-2.486s.033-6.667 0-7.357h2.485v1.039a2.473 2.473 0 0 1 2.235-1.215c1.635 0 2.86 1.051 2.86 3.311z"/></g></svg>