<svg xmlns="http://www.w3.org/2000/svg" width="10.195" height="20.182" viewBox="0 0 10.195 20.182"><g transform="translate(-76.703)"><path d="M77.029,10.749h2.212v9.108a.325.325,0,0,0,.326.326h3.751a.325.325,0,0,0,.326-.326V10.792h2.543a.326.326,0,0,0,.323-.288L86.9,7.151a.325.325,0,0,0-.323-.363H83.643v-2.1c0-.634.341-.955,1.014-.955h1.915a.326.326,0,0,0,.326-.326V.328A.325.325,0,0,0,86.573,0h-2.64c-.019,0-.06,0-.121,0A5.058,5.058,0,0,0,80.5,1.247,3.469,3.469,0,0,0,79.351,4.33V6.788H77.029a.325.325,0,0,0-.326.326v3.31A.326.326,0,0,0,77.029,10.749Z" fill="#908d98"/></g></svg>