<svg xmlns="http://www.w3.org/2000/svg" width="16.969" height="16.969" viewBox="0 0 16.969 16.969"><path d="M11.914,0H5.055A5.061,5.061,0,0,0,0,5.055v6.859a5.061,5.061,0,0,0,5.055,5.055h6.859a5.061,5.061,0,0,0,5.055-5.055V5.055A5.061,5.061,0,0,0,11.914,0Zm3.348,11.914a3.348,3.348,0,0,1-3.348,3.348H5.055a3.348,3.348,0,0,1-3.348-3.348V5.055A3.348,3.348,0,0,1,5.055,1.707h6.859a3.348,3.348,0,0,1,3.348,3.348v6.859Z" fill="#908d98"/><path d="M137.389,133a4.389,4.389,0,1,0,4.389,4.389A4.394,4.394,0,0,0,137.389,133Zm0,7.07a2.682,2.682,0,1,1,2.682-2.682A2.682,2.682,0,0,1,137.389,140.07Z" transform="translate(-128.904 -128.904)" fill="#908d98"/><circle cx="1.052" cy="1.052" r="1.052" transform="translate(11.83 3.077)" fill="#908d98"/></svg>