<svg xmlns="http://www.w3.org/2000/svg" width="16.74" height="16.481" viewBox="0 0 16.74 16.481"><path d="M246.11,203.913v-.228c-.047.077-.111.153-.152.228Z" transform="translate(-236.982 -196.399)" fill="#908d98" fill-rule="evenodd"/><path d="M0,0V16.481H16.74V0ZM5.207,13.692H2.723V6.336H5.207ZM3.965,5.331H3.948a1.276,1.276,0,1,1,.033-2.542,1.277,1.277,0,1,1-.016,2.542Zm10.2,8.361H11.68V9.756c0-.989-.359-1.663-1.258-1.663a1.356,1.356,0,0,0-1.274.894,1.652,1.652,0,0,0-.082.6v4.109H6.58s.033-6.667,0-7.357H9.065V7.378A2.473,2.473,0,0,1,11.3,6.163c1.635,0,2.86,1.051,2.86,3.311Z" fill="#908d98" fill-rule="evenodd"/></svg>