<svg xmlns="http://www.w3.org/2000/svg" width="19.837" height="16.241" viewBox="0 0 19.837 16.241"><g transform="translate(0.002 -28.097)"><path d="M19.385,29.971a7.52,7.52,0,0,1-.959.35,4.241,4.241,0,0,0,.863-1.518.32.32,0,0,0-.468-.373,7.55,7.55,0,0,1-2.232.882A4.26,4.26,0,0,0,9.35,32.355a4.344,4.344,0,0,0,.035.55A10.9,10.9,0,0,1,1.9,28.936a.32.32,0,0,0-.524.041,4.265,4.265,0,0,0,.437,4.9,3.607,3.607,0,0,1-.57-.254.32.32,0,0,0-.475.272c0,.019,0,.038,0,.057a4.274,4.274,0,0,0,2.085,3.662c-.108-.011-.216-.026-.324-.047a.32.32,0,0,0-.365.412,4.257,4.257,0,0,0,3.119,2.854,7.534,7.534,0,0,1-4.027,1.149,7.7,7.7,0,0,1-.9-.053.32.32,0,0,0-.21.587,11.484,11.484,0,0,0,6.21,1.82,11.048,11.048,0,0,0,8.56-3.76,11.916,11.916,0,0,0,2.966-7.766c0-.117,0-.235-.005-.352a8.278,8.278,0,0,0,1.905-2.018.32.32,0,0,0-.4-.47Z" transform="translate(0)" fill="#908d98"/></g></svg>