<svg xmlns="http://www.w3.org/2000/svg" width="72" height="94" viewBox="0 0 72 94"><g transform="translate(-224.81 -27)"><g transform="translate(224.81 27)"><rect width="12.599" height="4.849" transform="translate(29.7 61.877)"/><rect width="58.817" height="9.211" transform="translate(6.582 49.929)"/><path d="M0,0V47.234H72V0ZM68.064,42.24a1.369,1.369,0,0,1-1.43,1.316H5.366a1.369,1.369,0,0,1-1.43-1.316V4.993a1.369,1.369,0,0,1,1.43-1.316H66.634a1.369,1.369,0,0,1,1.43,1.316V42.24Z"/><path d="M46.1,81.941h59.191V46.5H46.1ZM85.481,67.02a.689.689,0,0,1,.4-.6l8.172-3.5-8.172-3.445a.649.649,0,0,1-.4-.6V56.156a.655.655,0,0,1,.941-.556l12.31,5.321a.649.649,0,0,1,.4.6v3.015a.689.689,0,0,1-.4.6L86.422,70.4a.67.67,0,0,1-.956-.57V67.02Zm-18.107,8.2L78.7,52.641a.705.705,0,0,1,.642-.375h2.57a.681.681,0,0,1,.657.959L71.228,75.8a.705.705,0,0,1-.642.375h-2.57A.679.679,0,0,1,67.374,75.217ZM52.3,61.532a.689.689,0,0,1,.4-.6l12.325-5.321a.661.661,0,0,1,.941.556v2.779a.689.689,0,0,1-.4.6l-8.172,3.445,8.172,3.5a.649.649,0,0,1,.4.6v2.834a.657.657,0,0,1-.941.556L52.7,65.214a.649.649,0,0,1-.4-.6Z" transform="translate(-39.695 -40.04)"/></g><path d="M11.189-21.874a1.029,1.029,0,0,0-.673.307c-.031.184-.092.429-.122.613-.887,3.5-1.713,6.99-2.477,10.148-.275,1.257-.489,2.391-.673,3.373C7-8.66,7.03-8.323,6.786-9.518c-.122-.552-.214-1.134-.336-1.748l-.459-1.84c-.7-2.882-1.315-5.427-1.774-7.512-.061-.337-.489-1.9-.856-1.962a12.058,12.058,0,0,0-1.529.092,1.287,1.287,0,0,0-1.254.858A30.68,30.68,0,0,1,1.5-18.011c.153.736.336,1.533.52,2.33.4,1.656.856,3.434,1.284,5.181.612,2.422,1.223,5,1.651,6.622a8.223,8.223,0,0,0,.306.858v.092a3.069,3.069,0,0,0,2.018.858A2.67,2.67,0,0,0,8.9-2.8c.122-.491.948-3.771,1.407-5.733.153-.613.245-1.073.306-1.257.4-1.717.887-3.924,1.254-5.7.489,2.422.765,3.71,1.223,5.733.489,1.9.979,3.894,1.376,5.519.061.307.122.46.183.766a1.941,1.941,0,0,1,.122.4l-.031-.031c.031.123.061.184.092.307a3.622,3.622,0,0,0,2.018.8,2.826,2.826,0,0,0,1.407-.613c.031-.031.092-.061.122-.092.55-1.288,1.9-6.684,3-11.16.214-.92.428-1.87.642-2.7.153-.613.336-1.2.459-1.748.245-.95.459-1.809.673-2.575a5.253,5.253,0,0,0,.183-1.2V-22.3a3.018,3.018,0,0,0-1.07-.184,5.446,5.446,0,0,0-.7-.061c-.122,0-.214-.031-.336-.031-.428,0-.673,0-.826.153a.924.924,0,0,0-.183.429l.031-.031-.153.491c-.612,2.79-1.346,5.856-2.477,10.21-.183.828-.306,1.656-.459,2.391-.122.644-.275,1.2-.4,1.778-.306-1.625-.459-2.177-.8-3.771-.031-.184-.092-.337-.122-.521-.367-1.441-.673-2.882-.979-4.108-.489-2.054-.948-3.863-1.254-5.089a3.913,3.913,0,0,0-.581-1.41,8.182,8.182,0,0,0-1.04.061A6.173,6.173,0,0,0,11.189-21.874Zm16.33-.429a3.213,3.213,0,0,0-.428,2.146V-2.406a38.268,38.268,0,0,0,5.015.337,8.471,8.471,0,0,0,5.81-2.024c2.049-1.962,2.844-4.875,2.844-9.044,0-5.488-1.835-9.474-8.746-9.474-1.56,0-3.517.153-4.281.245Zm9.694,9.167c0,7.174-2.6,8.615-5.015,8.615a16.281,16.281,0,0,1-1.835-.092V-20.188c.336-.031.8-.031,1.223-.031a7.606,7.606,0,0,1,1.743.184C35.929-19.605,37.213-17.674,37.213-13.136ZM46.6-2.13a4.481,4.481,0,0,0,1.682-.4V-11.45h4.251c.948,0,1.376-.307,1.5-2.453H48.284v-6.254h3.547a7.855,7.855,0,0,0,1.957-.123c.581-.184.8-.552.917-2.269H46.877a4.611,4.611,0,0,0-1.5.368,4.743,4.743,0,0,0-.428.245c.031.981.061,1.993.061,3.342V-2.5A3.121,3.121,0,0,0,46.6-2.13Z" transform="translate(232.685 123.004)"/></g></svg>